<svg xmlns="http://www.w3.org/2000/svg" viewBox="0 0 32 32" fill="none">
  <rect width="32" height="32" rx="6" fill="#4F46E5"/>
  <path d="M16 8C13.7909 8 12 9.79086 12 12C12 13.1046 12.4477 14.1052 13.1716 14.8284C13.8954 15.5523 14.8954 16 16 16C17.1046 16 18.1046 15.5523 18.8284 14.8284C19.5523 14.1052 20 13.1046 20 12C20 9.79086 18.2091 8 16 8Z" fill="white"/>
  <path d="M16 18C12.6863 18 10 20.6863 10 24H22C22 20.6863 19.3137 18 16 18Z" fill="white"/>
  <path d="M8 10H10V12H8V10Z" fill="white"/>
  <path d="M22 10H24V12H22V10Z" fill="white"/>
  <path d="M9 20H11V22H9V20Z" fill="white"/>
  <path d="M21 20H23V22H21V20Z" fill="white"/>
</svg>
